# xmcd
#
# Track frame offsets:
#       150
#       17065
#       30135
#       46792
#       63446
#       90249
#       103197
#       121802
#
# Disc length: 1848 seconds
#
# Revision: 0
# Processed by: cddbd v1.5.2PL0 Copyright (c) Steve Scherf et al.
# Submitted via: WaveLab 6.10
#
DISCID=51073608
DTITLE=Spencer MacKenzie - Spencer MacKenzie Infected With The Blues
DYEAR=1900
DGENRE=
TTITLE0=01 Infected With The Blues
TTITLE1=02 Mess Around
TTITLE2=03 Devil Under Her Skin
TTITLE3=04 Kissing in the Dark
TTITLE4=05 Goodbye Lucille
TTITLE5=06 Jumpin' From Six to Six
TTITLE6=07 Sinner`s Prayer
TTITLE7=08 All Along The Watchtower
EXTD=
EXTT0=
EXTT1=
EXTT2=
EXTT3=
EXTT4=
EXTT5=
EXTT6=
EXTT7=
PLAYORDER=
